<mxfile host="65bd71144e">
    <diagram id="GDJI3RgzADm5gkURgZzw" name="Page-1">
        <mxGraphModel dx="1647" dy="759" grid="1" gridSize="10" guides="1" tooltips="1" connect="1" arrows="1" fold="1" page="1" pageScale="1" pageWidth="583" pageHeight="413" math="0" shadow="0">
            <root>
                <mxCell id="0"/>
                <mxCell id="3" value="DiagramFrame" style="locked=1;" parent="0"/>
                <mxCell id="4" value="Verteilungssicht - Ebene 1" style="shape=umlFrame;whiteSpace=wrap;html=1;pointerEvents=0;recursiveResize=0;container=1;collapsible=0;width=160;fillColor=none;align=left;spacingLeft=4;" parent="3" vertex="1">
                    <mxGeometry x="583" width="577" height="410" as="geometry"/>
                </mxCell>
                <mxCell id="1" value="Content" parent="0"/>
                <mxCell id="70" style="edgeStyle=none;shape=connector;rounded=1;html=1;strokeColor=default;align=center;verticalAlign=middle;fontFamily=Helvetica;fontSize=11;fontColor=default;labelBackgroundColor=default;endArrow=open;endFill=0;" edge="1" parent="1" source="10" target="26">
                    <mxGeometry relative="1" as="geometry"/>
                </mxCell>
                <mxCell id="10" value="User" style="shape=umlActor;verticalLabelPosition=bottom;verticalAlign=top;html=1;outlineConnect=0;fontFamily=Helvetica;fontSize=11;fontColor=default;labelBackgroundColor=default;" parent="1" vertex="1">
                    <mxGeometry x="590" y="190" width="30" height="60" as="geometry"/>
                </mxCell>
                <mxCell id="27" style="edgeStyle=none;shape=connector;rounded=1;html=1;strokeColor=default;align=center;verticalAlign=middle;fontFamily=Helvetica;fontSize=11;fontColor=default;labelBackgroundColor=default;endArrow=open;endFill=0;" parent="1" source="26" target="7" edge="1">
                    <mxGeometry relative="1" as="geometry"/>
                </mxCell>
                <mxCell id="73" style="edgeStyle=none;shape=connector;rounded=1;html=1;strokeColor=default;align=center;verticalAlign=middle;fontFamily=Helvetica;fontSize=11;fontColor=default;labelBackgroundColor=default;endArrow=open;endFill=0;" edge="1" parent="1" source="11" target="65">
                    <mxGeometry relative="1" as="geometry"/>
                </mxCell>
                <mxCell id="54" value="Machine_c" style="shape=cube;whiteSpace=wrap;html=1;boundedLbl=1;backgroundOutline=1;darkOpacity=0.05;darkOpacity2=0.1;size=10;fillColor=none;verticalAlign=top;container=1;collapsible=0;recursiveResize=0;" parent="1" vertex="1">
                    <mxGeometry x="1030" y="130" width="110" height="180" as="geometry"/>
                </mxCell>
                <mxCell id="11" value="Neighbor" style="rounded=0;whiteSpace=wrap;html=1;fontFamily=Helvetica;fontSize=11;fontColor=#333333;labelBackgroundColor=none;fillColor=#f5f5f5;strokeColor=#666666;" parent="54" vertex="1">
                    <mxGeometry x="40" y="49" width="50" height="91.74" as="geometry"/>
                </mxCell>
                <mxCell id="59" value="Machine_&lt;span style=&quot;background-color: transparent;&quot;&gt;b&lt;/span&gt;" style="shape=cube;whiteSpace=wrap;html=1;boundedLbl=1;backgroundOutline=1;darkOpacity=0.05;darkOpacity2=0.1;size=10;fillColor=none;verticalAlign=top;container=1;collapsible=0;recursiveResize=0;" vertex="1" parent="1">
                    <mxGeometry x="810" y="130" width="198" height="180" as="geometry"/>
                </mxCell>
                <mxCell id="60" style="edgeStyle=orthogonalEdgeStyle;html=1;entryX=1;entryY=0.25;entryDx=0;entryDy=0;exitX=1;exitY=0.75;exitDx=0;exitDy=0;rounded=1;strokeColor=default;align=center;verticalAlign=middle;fontFamily=Helvetica;fontSize=11;fontColor=default;labelBackgroundColor=default;endArrow=open;endFill=0;" edge="1" parent="59">
                    <mxGeometry relative="1" as="geometry"/>
                </mxCell>
                <mxCell id="65" value="box_4" style="rounded=0;whiteSpace=wrap;html=1;fillColor=#f5f5f5;container=1;collapsible=0;recursiveResize=0;align=center;verticalAlign=middle;spacingLeft=4;spacingTop=4;fontColor=#333333;strokeColor=#666666;" vertex="1" parent="59">
                    <mxGeometry x="50" y="120" width="65" height="33.75" as="geometry"/>
                </mxCell>
                <mxCell id="64" value="box_3" style="rounded=0;whiteSpace=wrap;html=1;fillColor=#f5f5f5;container=1;collapsible=0;recursiveResize=0;align=center;verticalAlign=middle;spacingLeft=4;spacingTop=4;fontColor=#333333;strokeColor=#666666;" vertex="1" parent="59">
                    <mxGeometry x="108" y="40" width="65" height="33.75" as="geometry"/>
                </mxCell>
                <mxCell id="7" value="box_2" style="rounded=0;whiteSpace=wrap;html=1;fillColor=#f5f5f5;container=1;collapsible=0;recursiveResize=0;align=center;verticalAlign=middle;spacingLeft=4;spacingTop=4;fontColor=#333333;strokeColor=#666666;" parent="59" vertex="1">
                    <mxGeometry x="18" y="40" width="65" height="33.75" as="geometry"/>
                </mxCell>
                <mxCell id="69" style="edgeStyle=none;shape=connector;rounded=1;html=1;strokeColor=default;align=center;verticalAlign=middle;fontFamily=Helvetica;fontSize=11;fontColor=default;labelBackgroundColor=default;endArrow=open;endFill=0;" edge="1" parent="59" source="7" target="64">
                    <mxGeometry relative="1" as="geometry"/>
                </mxCell>
                <mxCell id="62" value="Machine_&lt;span style=&quot;background-color: transparent;&quot;&gt;b&lt;/span&gt;" style="shape=cube;whiteSpace=wrap;html=1;boundedLbl=1;backgroundOutline=1;darkOpacity=0.05;darkOpacity2=0.1;size=10;fillColor=none;verticalAlign=top;container=1;collapsible=0;recursiveResize=0;" vertex="1" parent="1">
                    <mxGeometry x="650" y="130" width="140" height="180" as="geometry"/>
                </mxCell>
                <mxCell id="63" style="edgeStyle=orthogonalEdgeStyle;html=1;entryX=1;entryY=0.25;entryDx=0;entryDy=0;exitX=1;exitY=0.75;exitDx=0;exitDy=0;rounded=1;strokeColor=default;align=center;verticalAlign=middle;fontFamily=Helvetica;fontSize=11;fontColor=default;labelBackgroundColor=default;endArrow=open;endFill=0;" edge="1" parent="62">
                    <mxGeometry relative="1" as="geometry"/>
                </mxCell>
                <mxCell id="66" value="box_5" style="rounded=0;whiteSpace=wrap;html=1;fillColor=#f5f5f5;container=1;collapsible=0;recursiveResize=0;align=center;verticalAlign=middle;spacingLeft=4;spacingTop=4;fontColor=#333333;strokeColor=#666666;" vertex="1" parent="62">
                    <mxGeometry x="37.5" y="121" width="65" height="33.75" as="geometry"/>
                </mxCell>
                <mxCell id="26" value="box_1" style="rounded=0;whiteSpace=wrap;html=1;fillColor=#f5f5f5;container=1;collapsible=0;recursiveResize=0;align=center;verticalAlign=middle;spacingLeft=4;spacingTop=4;fontColor=#333333;strokeColor=#666666;" parent="62" vertex="1">
                    <mxGeometry x="42.5" y="41" width="60" height="33.5" as="geometry"/>
                </mxCell>
                <mxCell id="68" style="edgeStyle=none;shape=connector;rounded=1;html=1;strokeColor=default;align=center;verticalAlign=middle;fontFamily=Helvetica;fontSize=11;fontColor=default;labelBackgroundColor=default;endArrow=open;endFill=0;" edge="1" parent="62" source="26" target="66">
                    <mxGeometry relative="1" as="geometry"/>
                </mxCell>
                <mxCell id="72" style="edgeStyle=none;shape=connector;rounded=1;html=1;strokeColor=default;align=center;verticalAlign=middle;fontFamily=Helvetica;fontSize=11;fontColor=default;labelBackgroundColor=default;endArrow=open;endFill=0;" edge="1" parent="1" source="64" target="11">
                    <mxGeometry relative="1" as="geometry">
                        <mxPoint x="999.9999999999998" y="231" as="targetPoint"/>
                    </mxGeometry>
                </mxCell>
                <mxCell id="74" style="edgeStyle=none;shape=connector;rounded=1;html=1;strokeColor=default;align=center;verticalAlign=middle;fontFamily=Helvetica;fontSize=11;fontColor=default;labelBackgroundColor=default;endArrow=open;endFill=0;" edge="1" parent="1" source="65" target="66">
                    <mxGeometry relative="1" as="geometry"/>
                </mxCell>
                <mxCell id="71" style="edgeStyle=none;shape=connector;rounded=1;html=1;strokeColor=default;align=center;verticalAlign=middle;fontFamily=Helvetica;fontSize=11;fontColor=default;labelBackgroundColor=default;endArrow=open;endFill=0;" edge="1" parent="1" source="66" target="10">
                    <mxGeometry relative="1" as="geometry"/>
                </mxCell>
            </root>
        </mxGraphModel>
    </diagram>
</mxfile>
